<svg width="24" height="24" viewBox="0 0 24 24" fill="none" xmlns="http://www.w3.org/2000/svg">
<path d="M12.24 10.301V14.152H18.483C18.384 14.863 17.96 16.294 17.066 17.291C16.173 18.288 15.006 19.336 12.234 19.336C8.04 19.336 4.673 15.845 4.673 11.668C4.673 7.491 8.04 4 12.234 4C14.28 4 15.86 4.796 16.968 5.836L19.742 3.09C17.755 1.189 15.228 0 12.234 0C5.483 0 0 5.26 0 11.668C0 18.076 5.483 23.336 12.234 23.336C18.736 23.336 23.013 18.79 23.013 12.441C23.013 11.597 22.923 10.963 22.78 10.301H12.24Z" fill="#EA4335"/>
<path d="M0 11.668V11.668C0 18.076 5.483 23.336 12.234 23.336C18.736 23.336 23.013 18.79 23.013 12.441C23.013 11.597 22.923 10.963 22.78 10.301H12.24L12.234 14.152H18.483C18.384 14.863 17.96 16.294 17.066 17.291C16.173 18.288 15.006 19.336 12.234 19.336C8.04 19.336 4.673 15.845 4.673 11.668C4.673 7.491 8.04 4 12.234 4C14.28 4 15.86 4.796 16.968 5.836L19.742 3.09C17.755 1.189 15.228 0 12.234 0C5.483 0 0 5.26 0 11.668Z" fill="url(#paint0_linear)"/>
<defs>
<linearGradient id="paint0_linear" x1="0" y1="11.668" x2="23.013" y2="11.668" gradientUnits="userSpaceOnUse">
<stop stop-color="#34A853"/>
<stop offset="0.5" stop-color="#4285F4"/>
<stop offset="1" stop-color="#EA4335"/>
</linearGradient>
</defs>
</svg>
